<svg xmlns="http://www.w3.org/2000/svg" viewBox="0 0 160.33 160.33"><defs><style>.cls-1,.cls-3{fill:#add8e6;}.cls-2{fill:#fff;}.cls-3{font-size:12px;font-family:Sniglet-Regular, Sniglet;letter-spacing:-0.02em;}.cls-4{letter-spacing:0em;}</style></defs><g id="Layer_2" data-name="Layer 2"><g id="Layer_1-2" data-name="Layer 1"><path class="cls-1" d="M36.81,73.32a17.56,17.56,0,0,1-4.27-.42,5.92,5.92,0,0,1-2.48-1.19,3.78,3.78,0,0,1-1.19-1.89,16.78,16.78,0,0,1-.45-2.52c-.09-1.09-.16-2.53-.21-4.33s-.07-3.65-.07-5.58c0-.93,0-1.92,0-3s0-2.07.05-3.08,0-2,.07-2.83.08-1.61.14-2.24a15.4,15.4,0,0,1,.48-2.61,4.26,4.26,0,0,1,1.25-2,6.26,6.26,0,0,1,2.61-1.29,18.43,18.43,0,0,1,4.47-.44c4.24,0,7.4.77,9.5,2.31a7.66,7.66,0,0,1,3.15,6.56,8.67,8.67,0,0,1-1,4.07,6,6,0,0,1-3.34,2.8,6.28,6.28,0,0,1,2.42,1,7.85,7.85,0,0,1,3.06,4.14,8.9,8.9,0,0,1,.4,2.59,9.21,9.21,0,0,1-.71,3.44A8.47,8.47,0,0,1,48.32,70a13.52,13.52,0,0,1-4.52,2.38A22.58,22.58,0,0,1,36.81,73.32Zm1.14-29a10.33,10.33,0,0,0-2.54.25,3.73,3.73,0,0,0-1.47.68,2,2,0,0,0-.66,1,4.94,4.94,0,0,0-.17,1.31v6.54c.44,0,.91,0,1.4,0h1.4A22.94,22.94,0,0,0,39.25,54a11.88,11.88,0,0,0,3-.79,5.5,5.5,0,0,0,2.13-1.55,3.81,3.81,0,0,0,.81-2.52,4.15,4.15,0,0,0-1.73-3.43Q41.68,44.36,38,44.36Zm8.76,18.87a4.38,4.38,0,0,0-.78-2.71,5,5,0,0,0-2-1.56,9.92,9.92,0,0,0-2.74-.73,25.66,25.66,0,0,0-3-.18H35.67c-.85,0-1.64,0-2.37,0l-.09,2c0,.69-.06,1.33-.07,1.94s0,1.14,0,1.59v1a10.17,10.17,0,0,0,.19,2.1A2.74,2.74,0,0,0,34,68a2.94,2.94,0,0,0,1.5.73A12,12,0,0,0,38,69a12,12,0,0,0,6.45-1.45A4.78,4.78,0,0,0,46.71,63.23Z"/><path class="cls-1" d="M90.24,73.32A17.47,17.47,0,0,1,86,72.9a6,6,0,0,1-2.49-1.19,3.77,3.77,0,0,1-1.18-1.89,14.58,14.58,0,0,1-.45-2.52c-.1-1.09-.17-2.53-.21-4.33s-.08-3.65-.08-5.58q0-1.39,0-3c0-1,0-2.07.05-3.08s0-2,.07-2.83.08-1.61.14-2.24a14.5,14.5,0,0,1,.47-2.61,4.2,4.2,0,0,1,1.26-2,6.15,6.15,0,0,1,2.6-1.29,18.52,18.52,0,0,1,4.48-.44q6.35,0,9.5,2.31a7.66,7.66,0,0,1,3.15,6.56,8.67,8.67,0,0,1-1,4.07A6,6,0,0,1,99,55.66a6.34,6.34,0,0,1,2.42,1,8,8,0,0,1,1.87,1.8,7.81,7.81,0,0,1,1.18,2.34,8.58,8.58,0,0,1,.4,2.59,9,9,0,0,1-.71,3.44,8.44,8.44,0,0,1-2.41,3.2,13.58,13.58,0,0,1-4.53,2.38A22.58,22.58,0,0,1,90.24,73.32Zm1.14-29a10.24,10.24,0,0,0-2.53.25,3.73,3.73,0,0,0-1.47.68,2.08,2.08,0,0,0-.67,1,5,5,0,0,0-.16,1.31v6.54c.44,0,.91,0,1.4,0h1.39A22.94,22.94,0,0,0,92.68,54a12,12,0,0,0,3-.79,5.5,5.5,0,0,0,2.13-1.55,3.86,3.86,0,0,0,.8-2.52,4.12,4.12,0,0,0-1.73-3.43Q95.13,44.36,91.38,44.36Zm8.77,18.87a4.32,4.32,0,0,0-.79-2.71,5,5,0,0,0-2-1.56,10,10,0,0,0-2.75-.73,25.66,25.66,0,0,0-3-.18H89.11c-.86,0-1.65,0-2.37,0,0,.66-.06,1.33-.1,2s0,1.33-.07,1.94,0,1.14,0,1.59v1a9.52,9.52,0,0,0,.19,2.1A2.59,2.59,0,0,0,87.45,68a2.91,2.91,0,0,0,1.49.73,12.16,12.16,0,0,0,2.49.21,11.93,11.93,0,0,0,6.44-1.45A4.77,4.77,0,0,0,100.15,63.23Z"/><path class="cls-1" d="M128.79,70.94c-.32-.75-.66-1.61-1-2.59s-.75-2-1.16-3.11c-1,0-2,.06-3,.07s-2.1,0-3.17,0h-3.7c-1.1,0-2.11,0-3,0-.38,1.09-.74,2.12-1.09,3.08s-.68,1.82-1,2.57c-.64,1.59-1.55,2.38-2.75,2.38a2.16,2.16,0,0,1-1.26-.42,1.4,1.4,0,0,1-.59-1.21,10.78,10.78,0,0,1,.28-2.08c.19-.86.44-1.78.74-2.76s.62-2,1-3,.68-2,1-2.92.77-2.27,1.36-3.81,1.2-3.16,1.87-4.84,1.32-3.34,2-5S116.5,44.22,117,43c.12-.31.28-.66.47-1a6.33,6.33,0,0,1,.69-1.1,5,5,0,0,1,.9-.89,1.85,1.85,0,0,1,1.11-.37,1.82,1.82,0,0,1,1.14.4,4.21,4.21,0,0,1,.92,1,8.19,8.19,0,0,1,.71,1.16c.21.41.37.77.5,1.08l1.73,4.3c.65,1.62,1.29,3.25,1.94,4.9s1.26,3.23,1.83,4.72,1,2.76,1.37,3.79.61,1.86,1,2.89.7,2,1,3,.58,1.92.78,2.78a9.15,9.15,0,0,1,.31,2.08,1.4,1.4,0,0,1-.59,1.21,2.16,2.16,0,0,1-1.26.42,2.38,2.38,0,0,1-1.56-.58A4.52,4.52,0,0,1,128.79,70.94ZM120.4,60.66c.76,0,1.52,0,2.27,0s1.52,0,2.28.07l-1.14-3.28c-.38-1.08-.73-2.13-1.06-3.13s-.64-1.92-.9-2.78-.5-1.61-.69-2.26a4.14,4.14,0,0,0-.43-1,.68.68,0,0,0-1.23,0,4.86,4.86,0,0,0-.43,1c-.38,1.27-.9,2.93-1.58,5s-1.4,4.18-2.16,6.43c.85,0,1.71-.06,2.56-.07Z"/><path class="cls-1" d="M42.27,82.91a18.79,18.79,0,0,1,3,.26,14.45,14.45,0,0,1,2.85.77,7.19,7.19,0,0,1,2.14,1.25,2.23,2.23,0,0,1,.85,1.72,2.12,2.12,0,0,1-.53,1.54,1.85,1.85,0,0,1-1.34.52,3.84,3.84,0,0,1-1.41-.26l-1.44-.57a14,14,0,0,0-1.92-.57,12.19,12.19,0,0,0-2.81-.27,7.43,7.43,0,0,0-3.5.86,9.36,9.36,0,0,0-2.87,2.37,11.45,11.45,0,0,0-2,3.58,13.59,13.59,0,0,0-.72,4.49,15.56,15.56,0,0,0,.76,5.1,11,11,0,0,0,2,3.56,7.81,7.81,0,0,0,2.76,2.08,7.5,7.5,0,0,0,3.1.69,9.4,9.4,0,0,0,4-.73,6.53,6.53,0,0,0,2.38-1.87c0-.61.05-1.35.05-2.2v-2.76a3.65,3.65,0,0,0-.09-.91.81.81,0,0,0-.45-.5,2.74,2.74,0,0,0-1-.22c-.46,0-1.08,0-1.85,0a6,6,0,0,1-2.32-.38,1.54,1.54,0,0,1-.89-1.6,2.09,2.09,0,0,1,.47-1.43,2.72,2.72,0,0,1,1.93-.64c.18,0,.47,0,.87,0l1.3,0h2.43A7.61,7.61,0,0,1,50.2,97,2.8,2.8,0,0,1,51.63,98,3,3,0,0,1,52,99.56c0,.74.07,1.59.07,2.55v11.34a2.24,2.24,0,0,1-.65,1.76,2.19,2.19,0,0,1-1.49.57,2.66,2.66,0,0,1-1.67-.5,1.89,1.89,0,0,1-.65-1.61V112a6.58,6.58,0,0,1-2.74,1.89,12,12,0,0,1-4,.57,12.49,12.49,0,0,1-4.81-1,11.83,11.83,0,0,1-4.19-2.88,14.55,14.55,0,0,1-3-4.79,18.29,18.29,0,0,1-1.13-6.7,19.22,19.22,0,0,1,1.13-6.81A15.23,15.23,0,0,1,32,87.19,13.25,13.25,0,0,1,36.61,84,14.39,14.39,0,0,1,42.27,82.91Z"/><path class="cls-1" d="M64.57,113.09c-.06-1.12-.1-2.29-.11-3.51s0-2.52-.08-3.92,0-2.92,0-4.55V95.62c0-2.22,0-4.11,0-5.68a30.43,30.43,0,0,1,.29-3.86,5.41,5.41,0,0,1,.73-2.19,1.56,1.56,0,0,1,1.35-.7,3.47,3.47,0,0,1,.81.09,1.34,1.34,0,0,1,.66.4,2.54,2.54,0,0,1,.5.89A5.28,5.28,0,0,1,69,86.08c.06,1.13.11,2.12.14,3s.07,1.74.1,2.6,0,1.74,0,2.66v7.13c0,1.27,0,2.53,0,3.78s-.07,2.51-.1,3.78-.08,2.62-.14,4a6.8,6.8,0,0,1-.24,1.73,2.5,2.5,0,0,1-.47.94,1.14,1.14,0,0,1-.66.39,4.54,4.54,0,0,1-.86.07,2.05,2.05,0,0,1-1.47-.58A3.87,3.87,0,0,1,64.57,113.09Z"/><path class="cls-1" d="M57.35,83.38c.78-.07,1.6-.1,2.46-.12l2.75-.07c1,0,2.06,0,3.2,0h3.86c1.55,0,2.88,0,4,0a14.48,14.48,0,0,1,2.71.28,3.12,3.12,0,0,1,1.54.74,1.82,1.82,0,0,1,.49,1.35,4.11,4.11,0,0,1-.07.8A1.48,1.48,0,0,1,78,87a1.79,1.79,0,0,1-.63.49,2.58,2.58,0,0,1-1.06.26c-.79.07-1.49.11-2.11.15L72.39,88c-.6,0-1.22,0-1.87,0h-5c-.9,0-1.79,0-2.66,0l-2.66-.09c-.9,0-1.84-.08-2.82-.15a3.82,3.82,0,0,1-1.22-.23,1.75,1.75,0,0,1-.65-.48,1.22,1.22,0,0,1-.28-.66,7.21,7.21,0,0,1,0-.85,2.61,2.61,0,0,1,.41-1.47A2.19,2.19,0,0,1,57.35,83.38Z"/><path class="cls-1" d="M57.35,111.48q1.17-.09,2.46-.12c.85,0,1.77,0,2.75-.07s2.06,0,3.2,0h3.86c1.55,0,2.88,0,4,0a14.38,14.38,0,0,1,2.71.29,3,3,0,0,1,1.54.73,1.82,1.82,0,0,1,.49,1.35,4.21,4.21,0,0,1-.07.81,1.49,1.49,0,0,1-.27.66,1.81,1.81,0,0,1-.63.5,2.75,2.75,0,0,1-1.06.26c-.79.06-1.49.11-2.11.14l-1.82.09c-.6,0-1.22,0-1.87,0h-5c-.9,0-1.79,0-2.66,0L60.2,116c-.9,0-1.84-.08-2.82-.14a3.54,3.54,0,0,1-1.22-.24,1.73,1.73,0,0,1-.65-.47,1.22,1.22,0,0,1-.28-.67,7.08,7.08,0,0,1,0-.85,2.61,2.61,0,0,1,.41-1.47A2.19,2.19,0,0,1,57.35,111.48Z"/><path class="cls-1" d="M93.3,104.49c-.44,0-.89.06-1.35.07s-.92,0-1.4,0H88.94a17.1,17.1,0,0,1-1.8-.1V114c0,1-.24,1.61-.73,1.84a4.15,4.15,0,0,1-1.83.35,4.3,4.3,0,0,1-.9-.07,1,1,0,0,1-.54-.28,1.44,1.44,0,0,1-.33-.63,5.66,5.66,0,0,1-.17-1.17c-.06-.56-.11-1.37-.14-2.45s-.06-2.47-.07-4.18,0-3.79-.05-6.24,0-5.32,0-8.62a14.35,14.35,0,0,1,.47-3.71,7.58,7.58,0,0,1,1.71-3.18,8.65,8.65,0,0,1,3.34-2.22,14.61,14.61,0,0,1,5.37-.84,20,20,0,0,1,4.53.51,10.66,10.66,0,0,1,3.91,1.78,9.08,9.08,0,0,1,2.74,3.41,12.18,12.18,0,0,1,1,5.37,10.52,10.52,0,0,1-1.87,6.66,10.06,10.06,0,0,1-5.15,3.34l6.35,8.6a3.76,3.76,0,0,1,.86,2.29A1.84,1.84,0,0,1,105,116a2.39,2.39,0,0,1-1.59.54,2.84,2.84,0,0,1-1.8-.59,6.73,6.73,0,0,1-1.42-1.52Zm7.44-10.88a5.75,5.75,0,0,0-2-4.79c-1.31-1-3.38-1.57-6.23-1.57a11.1,11.1,0,0,0-2.6.26,3.1,3.1,0,0,0-1.66,1,4.21,4.21,0,0,0-.88,1.94,15.93,15.93,0,0,0-.26,3.15v3.18c0,1.21,0,2.32,0,3.31.73,0,1.54,0,2.44,0h2.53A25.53,25.53,0,0,0,95,99.94a7.64,7.64,0,0,0,2.77-.84,5.75,5.75,0,0,0,2.14-2A6.36,6.36,0,0,0,100.74,93.61Z"/><path class="cls-1" d="M116,102.88v2.64c0,.76,0,1.49,0,2.17s-.05,1.37-.1,2.06-.06,1.16-.11,2c2.85-.25,5.08-.3,6.7-.36,1.36-.06,3.36-.17,4.29-.26s1.65-.16,2.17-.19,1.12,0,1.82,0q2.73,0,2.73,2c0,.53-.36,1-1.08,1.36a12.5,12.5,0,0,1-2.73.95,32.25,32.25,0,0,1-3.66.66c-1.34.17-2.64.29-3.9.37s-2.39.13-3.4.17-1.73,0-2.14,0a21.93,21.93,0,0,1-3.47-.21,2.54,2.54,0,0,1-1.86-1.26,7.58,7.58,0,0,1-.77-3.2c-.11-1.43-.16-3.46-.16-6.07V99q0-2.94.06-5.28c0-1.56.08-2.94.1-4.16s.07-2.32.15-3.32a3.37,3.37,0,0,1,.87-2.49,2.9,2.9,0,0,1,1.86-.59c.41,0,.27,0,.58,0a1.64,1.64,0,0,1,.84.4,2.2,2.2,0,0,1,.59.93,7,7,0,0,1,.28,1.73q.24,4.11.31,8.13T116,102.88Z"/><ellipse class="cls-1" cx="65.59" cy="69.8" rx="7.69" ry="3.52"/><path class="cls-1" d="M73.25,69.93A49.11,49.11,0,0,0,76.15,58a122.43,122.43,0,0,0,0-13.68H54.75a88.48,88.48,0,0,0,0,13.73,66.63,66.63,0,0,0,3.09,12.17Z"/><path class="cls-2" d="M71.26,67.87A26.77,26.77,0,0,0,73.85,58a64.85,64.85,0,0,0-.37-11.11H57.7A45.58,45.58,0,0,0,57.24,58a35.51,35.51,0,0,0,2.68,10Z"/><ellipse class="cls-1" cx="65.48" cy="44.54" rx="10.7" ry="4.42"/><ellipse class="cls-1" cx="65.56" cy="67.65" rx="5.7" ry="2.3"/><path class="cls-1" d="M56,55.83l2.52,13.48,6.34,2.36,7-1.72L75.3,55.83a22.24,22.24,0,0,1-19.33,0Z"/><circle class="cls-2" cx="62.3" cy="68.57" r="1.6"/><circle class="cls-2" cx="65.47" cy="65.4" r="1.6"/><circle class="cls-2" cx="68.4" cy="68.33" r="1.6"/><circle class="cls-2" cx="70.01" cy="63.79" r="1.6"/><circle class="cls-2" cx="60.69" cy="63.79" r="1.6"/><text class="cls-3" transform="translate(54.48 133.48)">T<tspan class="cls-4" x="6.3" y="0">EA SHOP</tspan></text><path class="cls-1" d="M80.17,160.33a80.17,80.17,0,1,1,80.16-80.17A80.26,80.26,0,0,1,80.17,160.33Zm0-156A75.88,75.88,0,1,0,156,80.16,76,76,0,0,0,80.17,4.29Z"/></g></g></svg>